<svg width="68" height="46" viewBox="0 0 68 46" fill="none" xmlns="http://www.w3.org/2000/svg">
<path d="M0 13.3818C0 8.69774 0 6.3557 0.926445 4.56662C1.74137 2.99291 3.0417 1.71343 4.64108 0.911582C6.45933 0 8.83955 0 13.6 0H54.4C59.1604 0 61.5407 0 63.3589 0.911582C64.9583 1.71343 66.2586 2.99291 67.0736 4.56662C68 6.3557 68 8.69774 68 13.3818V24.2545C68 28.9386 68 31.2807 67.0736 33.0697C66.2586 34.6435 64.9583 35.9229 63.3589 36.7248C61.5407 37.6364 59.1604 37.6364 54.4 37.6364H13.6C8.83955 37.6364 6.45933 37.6364 4.64108 36.7248C3.0417 35.9229 1.74137 34.6435 0.926445 33.0697C0 31.2807 0 28.9386 0 24.2545V13.3818Z" fill="#FF8833"/>
<path fill-rule="evenodd" clip-rule="evenodd" d="M21.25 37.6364C21.25 37.6364 29.75 37.6364 34 37.6364C38.25 37.6364 46.75 37.6364 46.75 37.6364C38.9079 37.6364 38.9079 46 34 46C29.0921 46 29.0921 37.6364 21.25 37.6364Z" fill="#FF8833"/>
</svg>
