<svg width="48" height="48" viewBox="0 0 48 48" fill="none" xmlns="http://www.w3.org/2000/svg">
<rect width="48" height="48" rx="24" fill="#0066FF"/>
<path fill-rule="evenodd" clip-rule="evenodd" d="M20.0001 26.2819V29.7181C20.0001 30.1638 19.9536 30.3255 19.8665 30.4884C19.7793 30.6514 19.6514 30.7793 19.4885 30.8664C19.3255 30.9536 19.1639 31 18.7181 31H17.0001C15.3432 31 14.0001 29.6569 14.0001 28C14.0001 26.6938 14.8349 25.5825 16.0001 25.1707V23C16.0001 18.5817 19.5818 15 24.0001 15C28.4183 15 32.0001 18.5817 32.0001 23V25.1707C33.1652 25.5825 34.0001 26.6938 34.0001 28C34.0001 29.6569 32.6569 31 31.0001 31H29.282C28.8362 31 28.6746 30.9536 28.5116 30.8664C28.3487 30.7793 28.2208 30.6514 28.1336 30.4884C28.0465 30.3255 28.0001 30.1638 28.0001 29.7181V26.2819C28.0001 25.8362 28.0465 25.6745 28.1336 25.5116C28.2208 25.3486 28.3487 25.2207 28.5116 25.1336C28.6746 25.0464 28.8362 25 29.282 25H30.0001V23C30.0001 19.6863 27.3138 17 24.0001 17C20.6863 17 18.0001 19.6863 18.0001 23V25H18.7181C19.1639 25 19.3255 25.0464 19.4885 25.1336C19.6514 25.2207 19.7793 25.3486 19.8665 25.5116C19.9536 25.6745 20.0001 25.8362 20.0001 26.2819Z" fill="white"/>
</svg>
