<svg width="49" height="48" viewBox="0 0 49 48" fill="none" xmlns="http://www.w3.org/2000/svg">
<rect x="0.5" width="48" height="48" rx="24" fill="#0066FF"/>
<path fill-rule="evenodd" clip-rule="evenodd" d="M16.5 22C16.5 21.4477 16.9477 21 17.5 21H27.5C28.0523 21 28.5 21.4477 28.5 22C28.5 22.5523 28.0523 23 27.5 23H17.5C16.9477 23 16.5 22.5523 16.5 22ZM16.5 18C16.5 17.4477 16.9477 17 17.5 17H31.5C32.0523 17 32.5 17.4477 32.5 18C32.5 18.5523 32.0523 19 31.5 19H17.5C16.9477 19 16.5 18.5523 16.5 18ZM16.5 26C16.5 25.4477 16.9477 25 17.5 25H31.5C32.0523 25 32.5 25.4477 32.5 26C32.5 26.5523 32.0523 27 31.5 27H17.5C16.9477 27 16.5 26.5523 16.5 26ZM16.5 30C16.5 29.4477 16.9477 29 17.5 29H24.5C25.0523 29 25.5 29.4477 25.5 30C25.5 30.5523 25.0523 31 24.5 31H17.5C16.9477 31 16.5 30.5523 16.5 30Z" fill="white"/>
</svg>
