<svg width="49" height="48" viewBox="0 0 49 48" fill="none" xmlns="http://www.w3.org/2000/svg">
<path fill-rule="evenodd" clip-rule="evenodd" d="M20.5 26.2819V29.7181C20.5 30.1638 20.4536 30.3255 20.3664 30.4884C20.2793 30.6514 20.1514 30.7793 19.9884 30.8664C19.8255 30.9536 19.6638 31 19.2181 31H17.5C15.8431 31 14.5 29.6569 14.5 28C14.5 26.6938 15.3348 25.5825 16.5 25.1707V23C16.5 18.5817 20.0817 15 24.5 15C28.9183 15 32.5 18.5817 32.5 23V25.1707C33.6652 25.5825 34.5 26.6938 34.5 28C34.5 29.6569 33.1569 31 31.5 31H29.7819C29.3362 31 29.1745 30.9536 29.0116 30.8664C28.8486 30.7793 28.7207 30.6514 28.6336 30.4884C28.5464 30.3255 28.5 30.1638 28.5 29.7181V26.2819C28.5 25.8362 28.5464 25.6745 28.6336 25.5116C28.7207 25.3486 28.8486 25.2207 29.0116 25.1336C29.1745 25.0464 29.3362 25 29.7819 25H30.5V23C30.5 19.6863 27.8137 17 24.5 17C21.1863 17 18.5 19.6863 18.5 23V25H19.2181C19.6638 25 19.8255 25.0464 19.9884 25.1336C20.1514 25.2207 20.2793 25.3486 20.3664 25.5116C20.4536 25.6745 20.5 25.8362 20.5 26.2819Z" fill="black"/>
</svg>
