<svg width="48" height="48" viewBox="0 0 48 48" fill="none" xmlns="http://www.w3.org/2000/svg">
<path fill-rule="evenodd" clip-rule="evenodd" d="M15.9999 22C15.9999 21.4477 16.4477 21 16.9999 21H26.9999C27.5522 21 27.9999 21.4477 27.9999 22C27.9999 22.5523 27.5522 23 26.9999 23H16.9999C16.4477 23 15.9999 22.5523 15.9999 22ZM15.9999 18C15.9999 17.4477 16.4477 17 16.9999 17H30.9999C31.5522 17 31.9999 17.4477 31.9999 18C31.9999 18.5523 31.5522 19 30.9999 19H16.9999C16.4477 19 15.9999 18.5523 15.9999 18ZM15.9999 26C15.9999 25.4477 16.4477 25 16.9999 25H30.9999C31.5522 25 31.9999 25.4477 31.9999 26C31.9999 26.5523 31.5522 27 30.9999 27H16.9999C16.4477 27 15.9999 26.5523 15.9999 26ZM15.9999 30C15.9999 29.4477 16.4477 29 16.9999 29H23.9999C24.5522 29 24.9999 29.4477 24.9999 30C24.9999 30.5523 24.5522 31 23.9999 31H16.9999C16.4477 31 15.9999 30.5523 15.9999 30Z" fill="black"/>
</svg>
