<svg width="33" height="32" viewBox="0 0 33 32" fill="none" xmlns="http://www.w3.org/2000/svg">
<path d="M0.5 9.6C0.5 6.23969 0.5 4.55953 1.15396 3.27606C1.7292 2.14708 2.64708 1.2292 3.77606 0.653961C5.05953 0 6.73969 0 10.1 0H22.9C26.2603 0 27.9405 0 29.2239 0.653961C30.3529 1.2292 31.2708 2.14708 31.846 3.27606C32.5 4.55953 32.5 6.23969 32.5 9.6V22.4C32.5 25.7603 32.5 27.4405 31.846 28.7239C31.2708 29.8529 30.3529 30.7708 29.2239 31.346C27.9405 32 26.2603 32 22.9 32H10.1C6.73969 32 5.05953 32 3.77606 31.346C2.64708 30.7708 1.7292 29.8529 1.15396 28.7239C0.5 27.4405 0.5 25.7603 0.5 22.4V9.6Z" fill="url(#paint0_linear_1825_1838)"/>
<path d="M1 9.6C1 7.91159 1.00039 6.67536 1.08008 5.69993C1.1593 4.73034 1.31438 4.06255 1.59946 3.50305C2.12677 2.46816 2.96816 1.62677 4.00305 1.09946C4.56255 0.814384 5.23034 0.659303 6.19993 0.580085C7.17536 0.500389 8.41159 0.5 10.1 0.5H22.9C24.5884 0.5 25.8246 0.500389 26.8001 0.580085C27.7697 0.659303 28.4374 0.814384 28.9969 1.09946C30.0318 1.62677 30.8732 2.46816 31.4005 3.50305C31.6856 4.06255 31.8407 4.73034 31.9199 5.69993C31.9996 6.67536 32 7.91159 32 9.6V22.4C32 24.0884 31.9996 25.3246 31.9199 26.3001C31.8407 27.2697 31.6856 27.9374 31.4005 28.4969C30.8732 29.5318 30.0318 30.3732 28.9969 30.9005C28.4374 31.1856 27.7697 31.3407 26.8001 31.4199C25.8246 31.4996 24.5884 31.5 22.9 31.5H10.1C8.41159 31.5 7.17536 31.4996 6.19993 31.4199C5.23034 31.3407 4.56255 31.1856 4.00305 30.9005C2.96816 30.3732 2.12677 29.5318 1.59946 28.4969C1.31438 27.9374 1.1593 27.2697 1.08008 26.3001C1.00039 25.3246 1 24.0884 1 22.4V9.6Z" stroke="white" stroke-opacity="0.2"/>
<path d="M10.9062 23.2965L10.9092 23.2975L9.8296 25.1674C9.43554 25.8499 8.5627 26.0838 7.88013 25.6897C7.1976 25.2957 6.96373 24.4228 7.35779 23.7403L8.22942 22.2306C8.36573 22.0346 8.7021 21.6966 9.37495 21.7601C10.1165 21.8406 11.5396 22.3554 10.9062 23.2965ZM26.2187 18.5205H22.8521C22.6228 18.5051 22.5227 18.4233 22.4834 18.3757L22.4809 18.3713L18.877 12.1293L18.8724 12.1325L18.6562 11.8226C18.302 11.2809 17.7396 12.6663 17.7396 12.6663C17.068 14.21 17.8349 15.9652 18.1023 16.4956L23.1078 25.1654C23.5018 25.848 24.3746 26.0819 25.0572 25.6878C25.7397 25.2937 25.9736 24.4209 25.5795 23.7383L24.3279 21.5704C24.3036 21.5179 24.2614 21.3752 24.5181 21.3747H26.2187C27.0068 21.3747 27.6458 20.7357 27.6458 19.9476C27.6458 19.1594 27.0068 18.5205 26.2187 18.5205ZM19.6797 20.4606C19.6797 20.4606 19.8594 21.3746 19.164 21.3746H18.4687L6.7187 21.3747C5.93054 21.3747 5.2916 20.7357 5.2916 19.9476C5.2916 19.1594 5.93054 18.5205 6.7187 18.5205H9.91826C10.4348 18.4906 10.5573 18.1924 10.5573 18.1924L10.5601 18.1938L14.7366 10.9599L14.7354 10.9596C14.8115 10.8199 14.7481 10.6878 14.7371 10.6669L13.3578 8.27796C12.9637 7.5954 13.1976 6.72259 13.8801 6.32852C14.5627 5.93443 15.4355 6.16831 15.8296 6.85087L16.4693 7.95887L17.1078 6.85284C17.5019 6.17027 18.3747 5.9364 19.0573 6.33049C19.7398 6.72459 19.9737 7.5974 19.5796 8.27993L13.7679 18.3461C13.7425 18.4074 13.7347 18.5036 13.9238 18.5205H17.3977H17.3984C17.3984 18.5205 19.4062 18.5856 19.6797 20.4606Z" fill="white"/>
<defs>
<linearGradient id="paint0_linear_1825_1838" x1="16.5" y1="32" x2="16.5" y2="0" gradientUnits="userSpaceOnUse">
<stop stop-color="#1D76F2"/>
<stop offset="1" stop-color="#1AC2FB"/>
</linearGradient>
</defs>
</svg>
