<svg width="68" height="46" viewBox="0 0 68 46" fill="none" xmlns="http://www.w3.org/2000/svg">
<path d="M0.926445 4.56662C0 6.3557 0 8.69774 0 13.3818V24.2545C0 28.9386 0 31.2807 0.926445 33.0697C1.74137 34.6435 3.0417 35.9229 4.64108 36.7248C6.45933 37.6364 8.83955 37.6364 13.6 37.6364H21.25C29.0921 37.6364 29.0921 46 34 46C38.9079 46 38.9079 37.6364 46.75 37.6364H54.4C59.1604 37.6364 61.5407 37.6364 63.3589 36.7248C64.9583 35.9229 66.2586 34.6435 67.0736 33.0697C68 31.2807 68 28.9386 68 24.2545V13.3818C68 8.69774 68 6.3557 67.0736 4.56662C66.2586 2.99291 64.9583 1.71343 63.3589 0.911582C61.5407 0 59.1604 0 54.4 0H13.6C8.83955 0 6.45933 0 4.64108 0.911582C3.0417 1.71343 1.74137 2.99291 0.926445 4.56662Z" fill="white"/>
<path d="M0.537829 13.3818C0.537829 11.0308 0.538261 9.30034 0.65179 7.9331C0.764776 6.57241 0.987016 5.61926 1.40404 4.81394C2.16621 3.3421 3.38323 2.14385 4.88212 1.39237C5.70357 0.980539 6.6755 0.761376 8.06032 0.650047C9.45115 0.538234 11.211 0.537829 13.6 0.537829H54.4C56.789 0.537829 58.5488 0.538234 59.9397 0.650047C61.3245 0.761376 62.2964 0.980539 63.1179 1.39237C64.6168 2.14385 65.8338 3.3421 66.596 4.81394C67.013 5.61926 67.2352 6.57241 67.3482 7.9331C67.4617 9.30034 67.4622 11.0308 67.4622 13.3818V24.2545C67.4622 26.6056 67.4617 28.336 67.3482 29.7033C67.2352 31.064 67.013 32.0171 66.596 32.8224C65.8338 34.2943 64.6168 35.4925 63.1179 36.244C62.2964 36.6558 61.3245 36.875 59.9397 36.9863C58.5488 37.0981 56.789 37.0985 54.4 37.0985H46.75C44.6844 37.0985 43.1103 37.6521 41.8419 38.4953C40.5851 39.3307 39.6525 40.4354 38.847 41.4921C38.6491 41.7518 38.4606 42.0057 38.2778 42.2521C37.6979 43.0336 37.1746 43.7387 36.5865 44.3061C35.8402 45.0262 35.0468 45.4622 34 45.4622C32.9532 45.4622 32.1598 45.0262 31.4135 44.3061C30.8254 43.7387 30.3021 43.0336 29.7222 42.2521C29.5394 42.0057 29.3509 41.7518 29.153 41.4921C28.3475 40.4354 27.4149 39.3307 26.1581 38.4953C24.8897 37.6521 23.3156 37.0985 21.25 37.0985H13.6C11.211 37.0985 9.45115 37.0981 8.06032 36.9863C6.6755 36.875 5.70357 36.6558 4.88212 36.244C3.38323 35.4925 2.16621 34.2943 1.40404 32.8224C0.987016 32.0171 0.764776 31.064 0.65179 29.7033C0.538261 28.336 0.537829 26.6056 0.537829 24.2545V13.3818Z" stroke="black" stroke-opacity="0.1" stroke-width="1.07566"/>
</svg>
