<svg width="33" height="32" viewBox="0 0 33 32" fill="none" xmlns="http://www.w3.org/2000/svg">
<path d="M0.5 9.6C0.5 6.23969 0.5 4.55953 1.15396 3.27606C1.7292 2.14708 2.64708 1.2292 3.77606 0.653961C5.05953 0 6.73969 0 10.1 0H22.9C26.2603 0 27.9405 0 29.2239 0.653961C30.3529 1.2292 31.2708 2.14708 31.846 3.27606C32.5 4.55953 32.5 6.23969 32.5 9.6V22.4C32.5 25.7603 32.5 27.4405 31.846 28.7239C31.2708 29.8529 30.3529 30.7708 29.2239 31.346C27.9405 32 26.2603 32 22.9 32H10.1C6.73969 32 5.05953 32 3.77606 31.346C2.64708 30.7708 1.7292 29.8529 1.15396 28.7239C0.5 27.4405 0.5 25.7603 0.5 22.4V9.6Z" fill="white"/>
<path d="M1 9.6C1 7.91159 1.00039 6.67536 1.08008 5.69993C1.1593 4.73034 1.31438 4.06255 1.59946 3.50305C2.12677 2.46816 2.96816 1.62677 4.00305 1.09946C4.56255 0.814384 5.23034 0.659303 6.19993 0.580085C7.17536 0.500389 8.41159 0.5 10.1 0.5H22.9C24.5884 0.5 25.8246 0.500389 26.8001 0.580085C27.7697 0.659303 28.4374 0.814384 28.9969 1.09946C30.0318 1.62677 30.8732 2.46816 31.4005 3.50305C31.6856 4.06255 31.8407 4.73034 31.9199 5.69993C31.9996 6.67536 32 7.91159 32 9.6V22.4C32 24.0884 31.9996 25.3246 31.9199 26.3001C31.8407 27.2697 31.6856 27.9374 31.4005 28.4969C30.8732 29.5318 30.0318 30.3732 28.9969 30.9005C28.4374 31.1856 27.7697 31.3407 26.8001 31.4199C25.8246 31.4996 24.5884 31.5 22.9 31.5H10.1C8.41159 31.5 7.17536 31.4996 6.19993 31.4199C5.23034 31.3407 4.56255 31.1856 4.00305 30.9005C2.96816 30.3732 2.12677 29.5318 1.59946 28.4969C1.31438 27.9374 1.1593 27.2697 1.08008 26.3001C1.00039 25.3246 1 24.0884 1 22.4V9.6Z" stroke="black" stroke-opacity="0.1"/>
<g clip-path="url(#clip0_1825_1903)">
<path d="M8.33985 5.74304C8.10018 5.9947 7.95638 6.39015 7.95638 6.89346V25.0244C7.95638 25.5278 8.10018 25.9232 8.33985 26.1749L8.39977 26.2348L18.5618 16.0728V15.8331L8.39977 5.67114L8.33985 5.74304Z" fill="url(#paint0_linear_1825_1903)"/>
<path d="M21.9411 19.4642L18.5618 16.0729V15.8332L21.9531 12.4419L22.025 12.4898L26.0394 14.7667C27.1899 15.4138 27.1899 16.4803 26.0394 17.1394L22.025 19.4163L21.9411 19.4642Z" fill="url(#paint1_linear_1825_1903)"/>
<path d="M22.025 19.4162L18.5618 15.953L8.33986 26.1749C8.71135 26.5704 9.34647 26.6303 10.0415 26.2228L22.025 19.4162Z" fill="url(#paint2_linear_1825_1903)"/>
<path d="M22.025 12.5018L10.0415 5.69522C9.33449 5.29977 8.71135 5.3477 8.33986 5.74315L18.5618 15.9651L22.025 12.5018Z" fill="url(#paint3_linear_1825_1903)"/>
</g>
<defs>
<linearGradient id="paint0_linear_1825_1903" x1="17.6505" y1="6.69621" x2="3.88907" y2="20.4577" gradientUnits="userSpaceOnUse">
<stop stop-color="#00A0FF"/>
<stop offset="0.007" stop-color="#00A1FF"/>
<stop offset="0.26" stop-color="#00BEFF"/>
<stop offset="0.512" stop-color="#00D2FF"/>
<stop offset="0.76" stop-color="#00DFFF"/>
<stop offset="1" stop-color="#00E3FF"/>
</linearGradient>
<linearGradient id="paint1_linear_1825_1903" x1="27.5228" y1="15.959" x2="7.6816" y2="15.959" gradientUnits="userSpaceOnUse">
<stop stop-color="#FFE000"/>
<stop offset="0.409" stop-color="#FFBD00"/>
<stop offset="0.775" stop-color="#FFA500"/>
<stop offset="1" stop-color="#FF9C00"/>
</linearGradient>
<linearGradient id="paint2_linear_1825_1903" x1="20.1399" y1="17.8441" x2="1.47836" y2="36.5056" gradientUnits="userSpaceOnUse">
<stop stop-color="#FF3A44"/>
<stop offset="1" stop-color="#C31162"/>
</linearGradient>
<linearGradient id="paint3_linear_1825_1903" x1="5.76581" y1="-0.30011" x2="14.099" y2="8.03307" gradientUnits="userSpaceOnUse">
<stop stop-color="#32A071"/>
<stop offset="0.069" stop-color="#2DA771"/>
<stop offset="0.476" stop-color="#15CF74"/>
<stop offset="0.801" stop-color="#06E775"/>
<stop offset="1" stop-color="#00F076"/>
</linearGradient>
<clipPath id="clip0_1825_1903">
<rect width="21.3333" height="21.3333" fill="white" transform="translate(6.72221 5.33325)"/>
</clipPath>
</defs>
</svg>
