<svg width="48" height="48" viewBox="0 0 48 48" fill="none" xmlns="http://www.w3.org/2000/svg">
<rect width="48" height="48" rx="8" fill="black" fill-opacity="0.05"/>
<path d="M15.6667 18.9998C15.6667 18.5396 16.0398 18.1665 16.5 18.1665H31.5C31.9603 18.1665 32.3334 18.5396 32.3334 18.9998C32.3334 19.4601 31.9603 19.8332 31.5 19.8332H16.5C16.0398 19.8332 15.6667 19.4601 15.6667 18.9998Z" fill="black"/>
<path d="M15.6667 23.9998C15.6667 23.5396 16.0398 23.1665 16.5 23.1665H31.5C31.9603 23.1665 32.3334 23.5396 32.3334 23.9998C32.3334 24.4601 31.9603 24.8332 31.5 24.8332H16.5C16.0398 24.8332 15.6667 24.4601 15.6667 23.9998Z" fill="black"/>
<path d="M16.5 28.1665C16.0398 28.1665 15.6667 28.5396 15.6667 28.9998C15.6667 29.4601 16.0398 29.8332 16.5 29.8332H31.5C31.9603 29.8332 32.3334 29.4601 32.3334 28.9998C32.3334 28.5396 31.9603 28.1665 31.5 28.1665H16.5Z" fill="black"/>
</svg>
