<svg width="24" height="24" viewBox="0 0 24 24" fill="none" xmlns="http://www.w3.org/2000/svg">
<path d="M8.38104 20.7655C16.5167 20.7655 20.9685 14.0188 20.9685 8.17803C20.9685 7.98822 20.9685 7.79842 20.9599 7.60861C21.8226 6.98744 22.5732 6.20234 23.1685 5.31371C22.3748 5.66744 21.5206 5.90038 20.6234 6.01254C21.5379 5.46901 22.2367 4.59763 22.5732 3.56234C21.7191 4.07136 20.7701 4.43371 19.7607 4.63214C18.9497 3.7694 17.8022 3.2345 16.534 3.2345C14.0924 3.2345 12.1081 5.21881 12.1081 7.66038C12.1081 8.00548 12.1512 8.34195 12.2203 8.66979C8.54496 8.48861 5.28378 6.71999 3.10104 4.04548C2.72143 4.70116 2.50575 5.46038 2.50575 6.27136C2.50575 7.80705 3.29084 9.16156 4.4728 9.95528C3.7481 9.9294 3.06653 9.73097 2.47124 9.40312C2.47124 9.42038 2.47124 9.43763 2.47124 9.46352C2.47124 11.6031 3.99829 13.3976 6.01712 13.8031C5.64614 13.9067 5.2579 13.9584 4.85241 13.9584C4.56771 13.9584 4.29163 13.9325 4.02418 13.8808C4.58496 15.6408 6.22418 16.9176 8.15673 16.9521C6.63829 18.1427 4.73163 18.8502 2.66104 18.8502C2.30731 18.8502 1.95359 18.8329 1.60849 18.7898C3.55829 20.0321 5.88771 20.7655 8.38104 20.7655Z" fill="black"/>
</svg>
