<svg width="48" height="48" viewBox="0 0 48 48" fill="none" xmlns="http://www.w3.org/2000/svg">
<rect width="48" height="48" rx="8" fill="black" fill-opacity="0.05"/>
<path d="M26.5001 21.4998C26.5001 22.8805 25.3808 23.9998 24.0001 23.9998C22.6193 23.9998 21.5001 22.8805 21.5001 21.4998C21.5001 20.1191 22.6193 18.9998 24.0001 18.9998C25.3808 18.9998 26.5001 20.1191 26.5001 21.4998Z" fill="black"/>
<path fill-rule="evenodd" clip-rule="evenodd" d="M32.3334 23.9998C32.3334 28.6022 28.6024 32.3332 24.0001 32.3332C19.3977 32.3332 15.6667 28.6022 15.6667 23.9998C15.6667 19.3975 19.3977 15.6665 24.0001 15.6665C28.6024 15.6665 32.3334 19.3975 32.3334 23.9998ZM17.3334 23.9998C17.3334 25.3905 17.7592 26.6817 18.4875 27.7502C19.9566 26.4534 21.8864 25.6665 24.0001 25.6665C26.1137 25.6665 28.0435 26.4534 29.5126 27.7502C30.2409 26.6817 30.6667 25.3905 30.6667 23.9998C30.6667 20.3179 27.6819 17.3332 24.0001 17.3332C20.3182 17.3332 17.3334 20.3179 17.3334 23.9998ZM24.0001 30.6665C22.3093 30.6665 20.7656 30.0371 19.5903 28.9998C20.7656 27.9626 22.3093 27.3332 24.0001 27.3332C25.6908 27.3332 27.2345 27.9626 28.4098 28.9998C27.2345 30.0371 25.6908 30.6665 24.0001 30.6665Z" fill="black"/>
</svg>
